HIERARCHY
ROOT root
{
	OFFSET	0	13.1	24.9
	CHANNELS 6  Xposition Yposition Zposition Xrotation Yrotation Zrotation
	JOINT spine_1
	{
		OFFSET	0	9.99999	0
		CHANNELS 3  Xrotation Yrotation Zrotation
		JOINT spine_2
		{
			OFFSET	0	112	-10
			CHANNELS 3  Xrotation Yrotation Zrotation
			JOINT spine_3
			{
				OFFSET	0	206.5	19.3
				CHANNELS 3  Xrotation Yrotation Zrotation
				JOINT spine_4
				{
					OFFSET	0	110.4	14.6
					CHANNELS 3  Xrotation Yrotation Zrotation
					JOINT neck_1
					{
						OFFSET	0	71.8	-50.3
						CHANNELS 3  Xrotation Yrotation Zrotation
						JOINT neck_2
						{
							OFFSET	0	86.2	-25.8
							CHANNELS 3  Xrotation Yrotation Zrotation
							JOINT head_ee
							{
								OFFSET	0	179.8	-8.7
								CHANNELS 3  Xrotation Yrotation Zrotation
								End Site
								{
									OFFSET	1	0	0
								}
							}
						}
					}
					JOINT left_clavicle
					{
						OFFSET	-43.2	22.4	-70.8
						CHANNELS 3  Xrotation Yrotation Zrotation
						JOINT left_shoulder
						{
							OFFSET	-93.9	-5.79999	48.7
							CHANNELS 3  Xrotation Yrotation Zrotation
							JOINT left_elbow
							{
								OFFSET	-291.4	-30.8	15.2
								CHANNELS 3  Xrotation Yrotation Zrotation
								JOINT left_lowarm_twist
								{
									OFFSET	-110.7	-3.89999	13.6
									CHANNELS 3  Xrotation Yrotation Zrotation
									JOINT left_hand
									{
										OFFSET	-110.7	-3.89999	13.6
										CHANNELS 3  Xrotation Yrotation Zrotation
										JOINT left_ee
										{
											OFFSET	-80.8	-5.10001	12.1
											CHANNELS 3  Xrotation Yrotation Zrotation
											End Site
											{
												OFFSET	1	0	0
											}
										}
									}
								}
							}
						}
					}
					JOINT right_clavicle
					{
						OFFSET	43.2	22.4	-70.8
						CHANNELS 3  Xrotation Yrotation Zrotation
						JOINT right_shoulder
						{
							OFFSET	93.9	-5.79999	48.7
							CHANNELS 3  Xrotation Yrotation Zrotation
							JOINT right_elbow
							{
								OFFSET	291.4	-30.8	15.2
								CHANNELS 3  Xrotation Yrotation Zrotation
								JOINT right_lowarm_twist
								{
									OFFSET	110.7	-3.89999	13.6
									CHANNELS 3  Xrotation Yrotation Zrotation
									JOINT right_hand
									{
										OFFSET	110.7	-3.89999	13.6
										CHANNELS 3  Xrotation Yrotation Zrotation
										JOINT right_ee
										{
											OFFSET	80.8	-5.10001	12.1
											CHANNELS 3  Xrotation Yrotation Zrotation
											End Site
											{
												OFFSET	1	0	0
											}
										}
									}
								}
							}
						}
					}
				}
			}
		}
	}
	JOINT left_hip
	{
		OFFSET	-82.8	-127.5	0.300001
		CHANNELS 3  Xrotation Yrotation Zrotation
		JOINT left_knee
		{
			OFFSET	-28.2	-396.7	2.2
			CHANNELS 3  Xrotation Yrotation Zrotation
			JOINT left_ankle
			{
				OFFSET	-11.7	-411.3	35.4
				CHANNELS 3  Xrotation Yrotation Zrotation
				JOINT left_toes
				{
					OFFSET	0	-60	-88.6
					CHANNELS 3  Xrotation Yrotation Zrotation
					JOINT left_foot_ee
					{
						OFFSET	-22.5	-16.5	-42.2
						CHANNELS 3  Xrotation Yrotation Zrotation
						End Site
						{
							OFFSET	1	0	0
						}
					}
				}
			}
		}
	}
	JOINT right_hip
	{
		OFFSET	82.8	-127.5	0.300001
		CHANNELS 3  Xrotation Yrotation Zrotation
		JOINT right_knee
		{
			OFFSET	28.2	-396.7	2.2
			CHANNELS 3  Xrotation Yrotation Zrotation
			JOINT right_ankle
			{
				OFFSET	11.7	-411.3	35.4
				CHANNELS 3  Xrotation Yrotation Zrotation
				JOINT right_toes
				{
					OFFSET	0	-60	-88.6
					CHANNELS 3  Xrotation Yrotation Zrotation
					JOINT right_foot_ee
					{
						OFFSET	22.5	-16.5	-42.2
						CHANNELS 3  Xrotation Yrotation Zrotation
						End Site
						{
							OFFSET	1	0	0
						}
					}
				}
			}
		}
	}
}
MOTION
Frames: 8
Frame Time: 0.02
3282.93 739.639 -783.086 -0.454377 67.5505 5.22963 -3.77514 -0.0937456 -2.18036 -3.7725 0.0451527 -2.18191 -3.77073 0.641597 -2.08597 -3.77667 0.304186 -2.16108 8.78821 9.40242 1.0942 9.09182 14.613 1.41916 -0.0 0.0 -0.0 10.9733 -5.23807 21.9228 -1.21639 -33.4187 46.5815 2.8105 -54.3014 1.44156 9.81693 0.241073 -1.22932 -0.516202 -13.7065 -9.33589 -0.0 0.0 -0.0 10.1349 -9.55637 -19.1604 -39.5248 33.4005 -41.7991 0.45374 12.668 -0.0503662 39.2548 0.311069 4.90814 1.32283 12.0942 -3.7766 0.0 0.0 0.0 2.77203 44.6481 -18.8826 -23.8615 0.229845 3.62813 12.0418 -28.1892 -2.0977 32.8037 -0.0 -0.0 -0.0 0.0 -0.0 24.0959 4.25437 -6.00303 3.65122 0.167485 0.535097 -23.5992 -6.35372 -3.55255 15.9287 -0.0 -0.0 0.0 0.0 0.0 
3262.61 739.92 -798.867 0.0305806 66.5792 4.58793 -3.89247 -0.109933 -2.08368 -3.89006 0.0228506 -2.08645 -3.88759 0.598025 -1.99908 -3.89306 0.274874 -2.0684 10.0619 9.83548 1.51564 10.3824 14.739 1.86178 -0.0 0.0 -0.0 10.8491 -4.88563 21.6436 -2.79815 -33.1494 46.3987 2.67494 -52.9501 1.33241 9.30692 0.233765 -1.16458 -0.534785 -13.7358 -9.47488 -0.0 0.0 -0.0 10.4425 -9.43868 -19.7557 -40.0446 34.7077 -41.1754 0.391028 10.9628 -0.0375239 38.6696 0.28188 4.83923 1.34462 10.661 -4.54682 0.0 0.0 0.0 1.43696 44.5065 -19.1668 -23.9244 0.228444 3.63769 11.7407 -27.8789 -2.04013 32.2006 -0.0 -0.0 -0.0 0.0 -0.0 23.363 3.81771 -7.03476 3.12982 0.141482 0.45934 -24.5543 -8.52764 -3.69311 14.4636 -0.0 -0.0 0.0 0.0 0.0 
3237.98 740.525 -814.201 0.374271 67.0549 3.64595 -4.15567 -0.111915 -1.95011 -4.15355 0.0123783 -1.95328 -4.15094 0.559768 -1.87143 -4.15573 0.257245 -1.93631 11.1493 10.4654 2.11927 11.4865 15.0216 2.55406 -0.0 0.0 -0.0 10.6086 -3.50512 21.0821 -3.58464 -32.3201 46.9388 2.58919 -52.0491 1.26437 9.34838 0.23438 -1.16984 -0.405207 -14.8375 -9.06012 -0.0 0.0 -0.0 10.4826 -8.60079 -19.9283 -39.5869 36.0688 -41.9368 0.348362 9.79122 -0.0298384 38.3677 0.267093 4.80356 1.45219 9.49415 -5.78003 0.0 0.0 0.0 0.348806 43.1187 -19.7027 -23.9955 0.226848 3.64849 11.3084 -28.7093 -1.98972 31.3351 -0.0 -0.0 -0.0 0.0 -0.0 23.3112 3.72859 -6.93584 -0.411871 -0.01674 -0.0609891 -22.461 -10.2972 -3.37976 14.9832 -0.0 -0.0 0.0 0.0 0.0 
3215.01 747.367 -829.397 0.292285 65.9651 3.8822 -4.19842 -0.0924364 -1.93465 -4.19633 0.0308339 -1.93661 -4.19441 0.574216 -1.84981 -4.19908 0.274924 -1.91725 11.9972 10.159 2.52684 12.2874 13.9899 3.04777 -0.0 0.0 -0.0 10.5508 -3.89481 20.9715 -7.26131 -30.9748 46.1224 2.35866 -49.4338 1.08583 8.08843 0.213973 -1.0102 -0.535965 -13.9947 -9.59271 -0.0 0.0 -0.0 10.74 -8.41841 -20.4447 -38.8643 37.2238 -41.3001 0.367546 10.3191 -0.0331877 37.6864 0.234427 4.72281 1.35334 8.7242 -5.44072 0.0 0.0 0.0 0.538969 43.5212 -20.4186 -23.9688 0.22745 3.64443 11.5982 -27.8292 -2.01542 31.5079 -0.0 -0.0 -0.0 0.0 -0.0 22.3845 3.6689 -8.00519 -0.768646 -0.0308859 -0.113914 -22.9538 -11.2074 -3.45603 13.3249 -0.0 -0.0 0.0 0.0 0.0 
3199.7 749.581 -845.867 0.0434615 66.5434 4.33765 -4.16599 -0.143799 -1.91897 -4.16394 -0.0214218 -1.92423 -4.1602 0.519454 -1.85294 -4.16492 0.220354 -1.9117 12.8162 10.9157 3.62444 13.097 14.0193 4.41114 -0.0 0.0 -0.0 10.4199 -3.44763 20.6777 -9.58279 -29.8483 45.726 2.18408 -47.2474 0.95537 7.72407 0.207417 -0.964118 -0.491322 -13.8754 -9.23808 -0.0 0.0 -0.0 10.634 -7.95289 -20.2929 -37.1108 38.5056 -42.6566 0.362741 10.187 -0.0323325 37.4016 0.221058 4.68894 1.33094 6.82326 -6.09928 0.0 0.0 0.0 -1.43236 43.3424 -19.3627 -21.7254 0.271148 3.30296 10.5825 -26.578 -1.81926 30.0656 -0.0 -0.0 -0.0 0.0 -0.0 22.4343 4.85214 -8.47498 -4.6285 -0.162705 -0.691509 -15.2755 -11.9354 -2.29384 15.6844 -0.0 -0.0 0.0 0.0 0.0 
3186.87 748.282 -868.771 1.3999 65.6436 4.01972 -4.10401 -0.146577 -2.00258 -4.10178 -0.0188763 -2.00785 -4.09787 0.543279 -1.93307 -4.10301 0.231232 -1.99459 12.3661 11.9962 3.72281 12.7255 15.7578 4.50763 -0.0 0.0 -0.0 10.6234 -3.45205 21.1118 -11.6683 -28.2994 44.9087 1.73006 -40.5937 0.639903 8.41061 0.219525 -1.05098 -0.130146 -13.5491 -6.64788 -0.0 0.0 -0.0 10.7022 -7.71411 -20.4519 -35.2144 41.5031 -44.1488 0.331233 9.31843 -0.026995 36.3028 0.171057 4.55765 1.02593 6.8632 -4.01577 0.0 0.0 0.0 -0.795814 38.6609 -20.1776 -23.0804 0.246354 3.50941 9.27724 -23.1349 -1.54296 30.0819 -0.0 -0.0 -0.0 0.0 -0.0 21.5137 4.55827 -11.0146 -6.08606 -0.20231 -0.911683 -14.2149 -10.1422 -2.12995 13.2698 -0.0 -0.0 0.0 0.0 0.0 
3166.22 745.694 -887.25 2.54437 63.915 2.97199 -4.10862 -0.0459237 -1.85063 -4.10671 0.0719092 -1.8498 -4.10646 0.586528 -1.75586 -4.11063 0.301911 -1.82642 11.5368 14.1611 5.33848 11.9848 17.9492 6.49174 -0.0 0.0 -0.0 10.3961 -2.68605 20.6002 -13.756 -27.183 44.9296 1.42996 -35.3102 0.455146 7.90176 0.210651 -0.986586 0.295327 -13.3452 -3.68695 -0.0 0.0 -0.0 10.4191 -6.04372 -20.0696 -31.5242 43.9554 -46.6069 0.312959 8.81265 -0.0241158 35.7823 0.148255 4.49514 1.00789 5.5172 -4.46201 0.0 0.0 0.0 -0.236954 33.8194 -21.1516 -29.0136 0.0805819 4.40447 9.11048 -19.4287 -1.46243 30.6271 -0.0 -0.0 -0.0 0.0 -0.0 20.4851 5.87179 -12.2032 -9.06359 -0.265735 -1.36415 -5.29517 -6.57079 -0.784057 14.6442 -0.0 -0.0 0.0 0.0 0.0 
3141.09 745.559 -900.314 5.13799 62.3855 0.76169 -4.20951 -0.0832244 -1.75145 -4.2078 0.0283764 -1.7532 -4.20624 0.52059 -1.67439 -4.21006 0.249661 -1.73557 11.6564 14.9363 3.23333 12.3521 21.1526 3.7966 -0.0 0.0 -0.0 9.92214 -2.00984 19.5775 -16.6971 -26.7989 45.8208 1.26125 -31.9952 0.361614 7.47264 0.202722 -0.932344 0.761356 -13.7071 -0.705571 -0.0 0.0 -0.0 10.2761 -3.8776 -19.9719 -30.1379 45.4121 -47.0267 0.331444 9.32427 -0.0270292 35.1301 0.120488 4.41652 1.09073 5.20977 -5.15175 0.0 0.0 0.0 -0.614739 30.5156 -21.1845 -33.7786 -0.119112 5.10821 8.42211 -14.7398 -1.30469 30.1918 -0.0 -0.0 -0.0 0.0 -0.0 19.6291 7.39501 -13.2391 -13.5747 -0.316841 -2.05426 0.982063 -6.71426 0.143435 15.1065 -0.0 -0.0 0.0 0.0 0.0 
